<?xml version="1.0" encoding="UTF-8" standalone="no"?>
<svg
   version="1.0"
   width="1000.000000pt"
   height="623.000000pt"
   viewBox="0 0 1000.000000 623.000000"
   preserveAspectRatio="xMidYMid meet"
   id="svg12"
   sodipodi:docname="logo.svg"
   inkscape:version="1.1.2 (0a00cf5339, 2022-02-04)"
   xmlns:inkscape="http://www.inkscape.org/namespaces/inkscape"
   xmlns:sodipodi="http://sodipodi.sourceforge.net/DTD/sodipodi-0.dtd"
   xmlns="http://www.w3.org/2000/svg"
   xmlns:svg="http://www.w3.org/2000/svg">
  <defs
     id="defs16" />
  <sodipodi:namedview
     id="namedview14"
     pagecolor="#ffffff"
     bordercolor="#666666"
     borderopacity="1.0"
     inkscape:pageshadow="2"
     inkscape:pageopacity="0.0"
     inkscape:pagecheckerboard="0"
     inkscape:document-units="pt"
     showgrid="false"
     inkscape:zoom="0.3081862"
     inkscape:cx="502.94271"
     inkscape:cy="165.48437"
     inkscape:window-width="1366"
     inkscape:window-height="694"
     inkscape:window-x="0"
     inkscape:window-y="0"
     inkscape:window-maximized="1"
     inkscape:current-layer="svg12" />
  <g
     transform="translate(0.000000,623.000000) scale(0.100000,-0.100000)"
     fill="#000000"
     stroke="none"
     id="g10">
    <path
       d="M5955 6219 c-627 -57 -1201 -285 -1687 -670 -134 -107 -383 -356 -488 -489 -195 -247 -374 -557 -475 -827 l-24 -63 38 0 38 0 38 98 c21 53 66 151 100 217 449 879 1273 1481 2238 1635 634 101 1284 -1 1852 -290 859 -436 1459 -1245 1624 -2190 33 -188 43 -314 43 -525 0 -211 -10 -337 -43 -525 -134 -765 -552 -1445 -1173 -1910 -1028 -768 -2422 -812 -3490 -110 -515 339 -936 848 -1151 1393 l-38 97 -38 0 -38 0 24 -63 c101 -270 280 -580 475 -827 93 -118 346 -375 460 -467 911 -736 2126 -906 3206 -448 853 362 1519 1127 1768 2032 75 272 109 530 109 828 0 220 -12 361 -49 565 -120 666 -476 1302 -976 1747 -492 437 -1056 696 -1702 779 -146 18 -503 26 -641 13z"
       id="path2" />
    <path
       d="M1920 3115 l0 -845 90 0 90 0 2 748 c3 739 3 747 23 747 18 0 50 -89 266 -715 l245 -715 107 -3 c59 -1 107 -1 107 2 0 2 110 325 245 717 135 392 245 714 245 716 0 2 9 3 20 3 20 0 20 -7 20 -750 l0 -750 90 0 90 0 0 845 0 845 -168 0 -167 0 -239 -716 c-131 -394 -242 -712 -246 -707 -4 4 -42 114 -85 243 -43 129 -150 448 -238 708 l-159 472 -169 0 -169 0 0 -845z"
       id="path4" />
    <path
       d="M4530 3115 l0 -845 515 0 515 0 0 80 0 80 -420 0 -420 0 0 310 0 310 345 0 345 0 0 80 0 80 -345 0 -345 0 0 295 0 295 420 0 420 0 0 80 0 80 -515 0 -515 0 0 -845z"
       id="path6" />
    <path
       d="M6440 3115 l0 -845 90 0 90 0 0 750 c0 743 0 750 20 750 11 0 20 -1 20 -3 0 -2 110 -324 245 -717 135 -392 245 -714 245 -717 0 -2 48 -2 107 -1 l107 3 245 715 c216 626 248 715 266 715 20 0 20 -8 23 -747 l2 -748 90 0 90 0 0 845 0 845 -169 0 -169 0 -149 -442 c-83 -244 -190 -562 -238 -708 -48 -146 -91 -269 -95 -273 -4 -5 -115 313 -246 707 l-239 716 -167 0 -168 0 0 -845z"
       id="path8" />
  </g>
  <path
     style="fill:#ff0000;stroke-width:0.573604"
     d="M 604.00454,415.57577 V 303.14948 h 68.54562 68.54562 v 10.32486 10.32486 h -55.92634 -55.92635 v 39.57865 39.57864 h 45.88829 45.88828 v 10.32487 10.32486 h -45.88828 -45.88829 v 41.58626 41.58625 h 55.92635 55.92634 v 10.61167 10.61167 h -68.54562 -68.54562 z"
     id="path91"
     transform="scale(0.75)" />
  <path
     style="fill:#ff0000;stroke-width:0.573604"
     d="M 858.68451,415.57577 V 303.14948 l 22.22714,0.004 22.22714,0.004 20.83779,62.37523 c 31.27166,93.60763 42.72869,126.61881 43.94498,126.61881 0.87028,0 2.24094,-3.91996 23.56646,-67.39841 11.18148,-33.28335 24.95188,-74.19562 30.60078,-90.91616 l 10.2708,-30.40099 22.4339,-0.15006 22.434,-0.15006 v 112.43295 112.43296 h -11.6643 -11.6643 l -0.3814,-54.30046 c -0.2098,-29.86525 -0.393,-68.77708 -0.4071,-86.47073 -0.025,-31.82997 -0.617,-55.86776 -1.4241,-57.86937 -0.6994,-1.73442 -2.7073,-0.91861 -4.1388,1.6816 -1.4098,2.56071 -6.9637,17.02803 -11.312,29.46672 -8.1151,23.21392 -27.7274,80.02041 -40.23571,116.54183 -14.09622,41.15781 -14.29824,41.69075 -15.92643,42.01646 -2.96575,0.59327 -26.74426,0.37326 -26.74426,-0.24745 0,-0.31754 -14.07544,-41.68152 -31.27876,-91.91997 -17.20332,-50.23844 -31.85172,-93.02041 -32.552,-95.07105 -1.22845,-3.59723 -1.34636,-3.73453 -3.35127,-3.9021 -1.56473,-0.13077 -2.18628,0.0818 -2.51627,0.86041 -0.9201,2.17106 -1.34071,37.74639 -1.38385,117.0454 l -0.0447,82.16871 H 870.44337 858.6845 Z"
     id="path130"
     transform="scale(0.75)" />
  <path
     style="fill:#ff0000;stroke-width:0.573604"
     d="M 256.40079,415.57577 V 303.14948 h 22.23752 22.23752 l 3.22326,9.60785 c 6.18657,18.44083 57.39569,170.2496 58.7731,174.23208 1.80427,5.21663 2.31966,6.03505 3.07041,4.87563 1.70565,-2.63412 14.67173,-40.3824 41.86799,-121.89075 l 22.20122,-66.53801 22.17916,-0.15014 22.17916,-0.15014 v 112.43304 112.43303 h -11.7344 -11.7344 l -0.19461,-98.22961 c -0.12823,-64.72123 -0.39411,-98.81662 -0.77943,-99.95042 -0.48205,-1.41841 -0.94054,-1.75116 -2.60902,-1.89354 l -2.02421,-0.17273 -2.93097,8.48998 c -1.61204,4.66949 -14.94919,43.59452 -29.63811,86.50007 -14.68891,42.90554 -28.15704,82.21737 -29.92918,87.35961 l -3.22206,9.34954 -13.64386,-0.17188 c -7.50412,-0.0945 -13.83133,-0.35983 -14.06046,-0.58955 -0.22912,-0.22973 -7.87033,-22.17006 -16.98046,-48.75631 -39.84774,-116.28832 -47.72637,-138.28584 -50.39268,-140.69882 -1.41173,-1.2776 -2.60623,-0.79249 -3.08658,1.25352 -0.76443,3.256 -1.42023,61.17857 -1.45528,128.53431 l -0.0359,68.97583 h -11.75887 -11.75887 z"
     id="path169"
     transform="scale(0.75)" />
  <path
     style="fill:#ff0000;stroke-width:0.573604"
     d="m 1162.5225,646.00894 c 0.2523,-0.40097 2.2403,-3.4339 4.4177,-6.73984 37.1186,-56.35489 59.6109,-120.60346 65.7606,-187.84311 0.991,-10.83474 1.3582,-48.27718 0.6048,-61.66238 -3.911,-69.48766 -27.7809,-140.66647 -66.6937,-198.87791 -2.1546,-3.22317 -3.9175,-5.99798 -3.9175,-6.16624 0,-0.16825 2.2976,-0.30592 5.1058,-0.30592 h 5.1057 l 3.9845,6.16624 c 27.2758,42.2113 47.9136,92.70958 57.7267,141.24987 5.9436,29.40022 7.9518,50.21426 7.9693,82.59891 0.017,31.5291 -1.9495,53.68555 -7.1277,80.3045 -10.0254,51.53665 -30.2832,101.50386 -59.1261,145.8387 l -4.0115,6.16624 h -5.1287 c -4.0063,0 -5.0282,-0.15954 -4.6699,-0.72906 z"
     id="path208"
     transform="scale(0.75)" />
  <path
     style="fill:#ff0000;stroke-width:0.811198"
     d=""
     id="path247"
     transform="scale(0.75)" />
  <path
     style="fill:#ff0000;stroke-width:0.286802"
     d="m 1141.8644,157.66928 c -0.6103,-0.74927 -2.9896,-3.55635 -5.2872,-6.23794 C 1084.9892,91.221179 1016.1433,46.957759 940.27962,25.224697 914.65058,17.882621 889.14742,13.197078 862.41294,10.918725 850.51721,9.9049534 846.00531,9.7512603 828.14012,9.7512603 c -17.83059,0 -20.76078,0.1007595 -33.69921,1.1588017 -41.32983,3.379756 -83.08124,13.490037 -121.60395,29.446914 -19.53134,8.090274 -41.81559,19.527966 -58.43586,29.992993 l -3.22652,2.031594 v -5.4004 -5.400397 l 5.09073,-3.005192 c 10.18046,-6.009791 15.81034,-9.082619 25.74046,-14.049335 46.26014,-23.137764 95.03609,-37.1346669 148.13312,-42.5087483 10.22453,-1.03485012 22.1356,-1.40569235 38.28803,-1.192069 34.43723,0.4554482 50.68179,1.8077667 74.71187,6.2195734 C 967.92263,18.939 1026.938,45.098925 1079.6653,85.294472 c 22.2897,16.992128 41.8977,35.100348 59.3416,54.802808 l 4.185,4.72685 v 7.10373 c 0,3.90705 -0.049,7.10372 -0.1089,7.10372 -0.06,0 -0.6082,-0.61303 -1.2186,-1.3623 z"
     id="path325"
     transform="scale(0.75)" />
  <path
     style="fill:#ff0000;stroke-width:0.286802"
     d="m 1160.0983,181.62782 c -3.1782,-4.58595 -10.3116,-14.10276 -13.9907,-18.66524 l -2.9256,-3.62812 0.077,-7.15481 0.077,-7.1548 1.7208,2.04576 c 8.6334,10.26375 17.6041,22.07263 25.4669,33.52431 l 2.4981,3.63823 -5.0309,0.0902 c -3.6079,0.0647 -5.0929,0.19067 -5.25,0.4454 -0.1431,0.2321 -1.0586,-0.85634 -2.6419,-3.14092 z"
     id="path364"
     transform="scale(0.75)" />
  <path
     style="fill:#ff0000;stroke-width:0.286802"
     d="m 1227.0859,338.7846 c -0.082,-0.35492 -0.6084,-2.90387 -1.1688,-5.66434 -7.4625,-36.75948 -21.2405,-75.00535 -39.2098,-108.84127 -6.3058,-11.87385 -11.9095,-21.22276 -21.3916,-35.68881 -1.6991,-2.59225 -2.2396,-3.62951 -1.9778,-3.79573 0.1982,-0.1258 2.4253,-0.22724 4.9491,-0.22542 l 4.5889,0.003 3.4355,5.36984 c 8.7302,13.64581 15.119,24.91426 22.4758,39.64265 16.8578,33.74937 28.7961,68.13381 35.8909,103.37177 0.6329,3.14367 1.1507,5.88622 1.1507,6.09454 0,0.29697 -0.9278,0.37877 -4.2965,0.37877 -4.2201,0 -4.2992,-0.0115 -4.4464,-0.6453 z"
     id="path403"
     transform="scale(0.75)" />
  <path
     style="fill:#ff0000;stroke-width:0.286802"
     d="m 1227.1188,338.928 c -0.08,-0.27605 -0.4867,-2.24423 -0.9047,-4.37373 -6.9588,-35.45196 -20.9259,-74.79247 -38.3366,-107.98087 -6.4481,-12.2915 -11.476,-20.83742 -20.071,-34.11485 -3.4237,-5.28888 -4.715,-7.50747 -4.463,-7.66756 0.1951,-0.12389 2.4197,-0.22668 4.9435,-0.22842 l 4.5889,-0.003 3.6197,5.6631 c 8.6875,13.5916 14.9691,24.68137 22.296,39.3623 14.2995,28.65213 25.0023,57.5769 32.2911,87.26854 1.6803,6.84489 4.7461,21.16218 4.7461,22.16411 0,0.34029 -0.7491,0.41243 -4.2827,0.41243 -3.8324,0 -4.2979,-0.0528 -4.4273,-0.5019 z"
     id="path442"
     transform="scale(0.75)" />
  <path
     style="fill:#ff0000;stroke-width:0.286802"
     d="m 1158.6067,179.26254 c -4.2706,-5.90018 -8.8694,-11.99261 -12.6734,-16.78933 l -2.6156,-3.29823 0.1522,-6.78927 0.1522,-6.78927 1.7208,2.05552 c 4.1244,4.9266 10.3801,12.88153 15.0422,19.12801 4.624,6.19532 11.7947,16.29214 12.006,16.90525 0.1234,0.3577 -1.7265,0.55443 -6.2114,0.66057 l -3.8281,0.0906 z"
     id="path481"
     transform="scale(0.75)" />
  <path
     style="fill:#ff0000;stroke-width:0.286802"
     d="m 819.46437,830.22062 -2.93972,-0.093 v -4.60717 -4.60716 l 6.38134,0.19869 c 6.28112,0.19558 21.69341,-0.17521 30.18589,-0.7262 54.85425,-3.55895 106.48246,-17.34554 155.15972,-41.43324 34.1229,-16.8855 64.1631,-37.33109 93.0672,-63.34225 5.3763,-4.83823 22.8897,-22.35239 27.7149,-27.71628 11.1535,-12.39841 22.6585,-26.76788 31.0664,-38.80097 1.3909,-1.99066 2.2138,-2.93662 2.3551,-2.7074 0.1519,0.2465 1.6796,0.39538 5.0864,0.49571 l 4.8692,0.1434 -3.5992,5.16243 c -32.541,46.67418 -74.1145,86.32318 -121.5549,115.92801 -53.88366,33.62569 -118.12293,54.89538 -182.97955,60.58472 -15.68047,1.37552 -31.94617,1.92747 -44.81278,1.52066 z"
     id="path520"
     transform="scale(0.75)" />
  <path
     style="fill:#ff0000;stroke-width:0.286802"
     d="m 809.92821,829.95706 c -43.02136,-2.30638 -78.73309,-9.15449 -117.79829,-22.58909 -44.14065,-15.18005 -88.61664,-39.86262 -125.40961,-69.5978 -12.88596,-10.41412 -35.53883,-32.63421 -52.73752,-51.73001 -17.70516,-19.65812 -37.656,-48.95638 -53.22614,-78.1638 -1.38749,-2.60273 -2.57791,-4.82902 -2.64539,-4.94733 -0.0675,-0.11831 2.11864,-0.2151 4.85804,-0.2151 h 4.98072 l 1.2492,2.36611 c 21.81671,41.32315 53.78593,81.62504 90.63784,114.26235 33.76703,29.90522 71.63966,53.66135 112.9999,70.88073 44.13681,18.37535 90.14189,28.49986 139.17056,30.62781 l 4.51713,0.19605 v 4.55038 4.55038 l -2.50951,-0.0531 c -1.38024,-0.0292 -3.21935,-0.0911 -4.08693,-0.13762 z"
     id="path559"
     transform="scale(0.75)" />
  <path
     style="fill:#ff0000;stroke-width:0.286802"
     d="m 454.77567,596.18919 c -5.682,-11.48467 -9.19986,-19.53717 -14.09554,-32.2652 l -2.95092,-7.67195 h 4.92656 4.92657 l 0.37964,1.07551 c 1.0569,2.99412 7.97263,20.0658 9.90462,24.44985 1.21651,2.76047 3.94326,8.55264 6.05946,12.8715 2.1162,4.31886 3.84763,7.9003 3.84763,7.95875 0,0.0584 -2.19823,0.10628 -4.88496,0.10628 h -4.88497 z"
     id="path598"
     transform="scale(0.75)" />
  <path
     style="fill:#ff0000;stroke-width:0.573604"
     d="m 438.23311,274.03331 c 0,-0.7654 6.08124,-16.23851 9.18431,-23.36856 15.20922,-34.94684 41.54011,-77.2195 64.33737,-103.28978 12.6075,-14.41757 40.47504,-41.91226 54.67871,-53.947161 8.71411,-7.383537 36.57213,-27.145269 42.82424,-30.378359 l 1.63004,-0.842925 -0.009,5.033761 -0.009,5.033761 -8.16448,5.444721 c -52.3832,34.933312 -97.05597,83.305862 -128.7289,139.390172 -8.42783,14.92344 -18.169,35.40084 -23.94393,50.33371 l -2.71738,7.02665 h -4.54061 c -2.49734,0 -4.54061,-0.1962 -4.54061,-0.43599 z"
     id="path637"
     transform="scale(0.75)" />
</svg>
